HIERARCHY
ROOT Hips
{
	OFFSET 0.0000 0.0000 0.0000
	CHANNELS 6 Xposition Yposition Zposition Zrotation Xrotation Yrotation
	JOINT Spine1
	{
		OFFSET -0.0137 5.0038 -0.0537
		CHANNELS 3 Zrotation Xrotation Yrotation
		JOINT Spine2
		{
			OFFSET -0.0000 7.1253 -0.0298
			CHANNELS 3 Zrotation Xrotation Yrotation
			JOINT Chest
			{
				OFFSET -0.0000 7.5501 -0.8160
				CHANNELS 3 Zrotation Xrotation Yrotation
				JOINT Neck1
				{
					OFFSET -0.1817 26.3113 -0.5533
					CHANNELS 3 Zrotation Xrotation Yrotation
					JOINT Neck2
					{
						OFFSET -0.0000 7.7094 2.3026
						CHANNELS 3 Zrotation Xrotation Yrotation
						JOINT Head
						{
							OFFSET -0.0000 6.1289 1.9537
							CHANNELS 3 Zrotation Xrotation Yrotation
							JOINT Jaw
							{
								OFFSET 0.0026 0.4756 3.0949
								CHANNELS 3 Zrotation Xrotation Yrotation
								End Site
								{
									OFFSET 0.0 1.0 0.0
								}
							}
							JOINT LeftEye
							{
								OFFSET 3.2064 5.3802 7.5869
								CHANNELS 3 Zrotation Xrotation Yrotation
								End Site
								{
									OFFSET 0.0 1.0 0.0
								}
							}
							JOINT RightEye
							{
								OFFSET -3.2224 5.3619 7.5582
								CHANNELS 3 Zrotation Xrotation Yrotation
								End Site
								{
									OFFSET 0.0 1.0 0.0
								}
							}
						}
					}
				}
				JOINT LeftShoulder
				{
					OFFSET 1.6217 23.2372 5.1134
					CHANNELS 3 Zrotation Xrotation Yrotation
					JOINT LeftArm
					{
						OFFSET 14.9198 0.0000 -5.5023
						CHANNELS 3 Zrotation Xrotation Yrotation
						JOINT LeftForeArm
						{
							OFFSET 28.7393 0.0000 -0.0026
							CHANNELS 3 Zrotation Xrotation Yrotation
							JOINT LeftHand
							{
								OFFSET 27.0940 -0.0000 0.0026
								CHANNELS 3 Zrotation Xrotation Yrotation
								JOINT LeftHandThumbEnd
								{
									OFFSET 12.2686 -3.2202 4.8331
									CHANNELS 3 Zrotation Xrotation Yrotation
									End Site
									{
										OFFSET 0.0 1.0 0.0
									}
								}
								JOINT LeftHandMiddleEnd
								{
									OFFSET 19.0120 -0.3129 -0.0340
									CHANNELS 3 Zrotation Xrotation Yrotation
									End Site
									{
										OFFSET 0.0 1.0 0.0
									}
								}
							}
						}
					}
				}
				JOINT RightShoulder
				{
					OFFSET -1.3801 23.1803 5.2142
					CHANNELS 3 Zrotation Xrotation Yrotation
					JOINT RightArm
					{
						OFFSET -15.0372 0.0000 -5.5456
						CHANNELS 3 Zrotation Xrotation Yrotation
						JOINT RightForeArm
						{
							OFFSET -28.7366 0.0000 -0.0026
							CHANNELS 3 Zrotation Xrotation Yrotation
							JOINT RightHand
							{
								OFFSET -27.1336 -0.0000 0.0026
								CHANNELS 3 Zrotation Xrotation Yrotation
								JOINT RightHandThumbEnd
								{
									OFFSET -12.2642 -3.2115 4.8040
									CHANNELS 3 Zrotation Xrotation Yrotation
									End Site
									{
										OFFSET 0.0 1.0 0.0
									}
								}
								JOINT RightHandMiddleEnd
								{
									OFFSET -19.0006 -0.3066 -0.0316
									CHANNELS 3 Zrotation Xrotation Yrotation
									End Site
									{
										OFFSET 0.0 1.0 0.0
									}
								}
							}
						}
					}
				}
			}
		}
	}
	JOINT LeftLeg
	{
		OFFSET 10.0432 -8.4345 2.5957
		CHANNELS 3 Zrotation Xrotation Yrotation
		JOINT LeftShin
		{
			OFFSET -0.0000 -43.2218 -0.8029
			CHANNELS 3 Zrotation Xrotation Yrotation
			JOINT LeftFoot
			{
				OFFSET 0.0000 -42.1551 -3.4815
				CHANNELS 3 Zrotation Xrotation Yrotation
				JOINT LeftToeBase
				{
					OFFSET 0.0000 -5.0595 13.2315
					CHANNELS 3 Zrotation Xrotation Yrotation
					End Site
					{
						OFFSET 0.0 1.0 0.0
					}
				}
			}
		}
	}
	JOINT RightLeg
	{
		OFFSET -10.0473 -8.2953 2.6203
		CHANNELS 3 Zrotation Xrotation Yrotation
		JOINT RightShin
		{
			OFFSET 0.0000 -43.3622 -0.8056
			CHANNELS 3 Zrotation Xrotation Yrotation
			JOINT RightFoot
			{
				OFFSET 0.0000 -42.1174 -3.4784
				CHANNELS 3 Zrotation Xrotation Yrotation
				JOINT RightToeBase
				{
					OFFSET -0.0000 -5.0796 13.2842
					CHANNELS 3 Zrotation Xrotation Yrotation
					End Site
					{
						OFFSET 0.0 1.0 0.0
					}
				}
			}
		}
	}
}
MOTION
Frames: 14
Frame Time: 0.033333
4.7389 88.8145 7.1596 4.3596 -1.0320 49.6644 3.1507 0.9731 4.0844 0.8272 -4.6714 9.7529 0.3581 8.5525 10.2852 -3.3140 16.3627 3.1041 -3.5461 -3.8796 -9.9606 -2.5878 -5.6493 -14.4739 0.0328 0.0005 -0.1142 0.7654 -10.5449 -3.9822 -0.7279 -10.5788 3.7864 -5.4348 9.2397 6.9632 -41.7062 -30.0489 55.2528 2.2921 -2.5075 -98.4168 114.6405 -41.7387 -65.2379 -15.8344 10.5512 14.0511 -61.5440 1.4670 2.8079 -27.6326 9.2243 29.7420 50.3670 -35.4175 26.2869 0.2735 0.7547 108.6026 -27.2057 40.0377 5.3892 16.1976 7.3465 -16.2662 49.5951 -3.9102 -5.4963 20.2292 -30.0956 -26.2584 -0.4491 21.8573 -1.2661 -30.5544 4.7720 -10.6352 1.6054 -0.8443 -1.8131 -22.4743 21.6093 -18.9019 -0.3770 10.7556 1.6956 29.3657 -13.6699 -25.6936 -1.5114 -4.1803 1.2544
5.1403 88.8928 7.1297 4.5298 -0.8965 49.1695 3.2625 1.0724 4.1361 0.8518 -4.6479 9.7405 0.3138 8.6330 10.1542 -3.6469 15.6439 3.2736 -3.5588 -3.8622 -9.7975 -2.6048 -6.3365 -14.4220 0.0294 0.0035 -0.1086 0.7662 -10.5418 -3.9769 -0.7360 -10.5798 3.7956 -5.6109 8.8384 6.8411 -42.0854 -33.6144 56.2921 2.2344 -2.5696 -98.6832 111.2635 -40.2889 -61.9221 -15.7375 10.6502 14.0779 -61.4247 1.4826 2.8243 -27.6886 9.2346 29.6970 48.8391 -35.3504 27.5605 0.1463 0.7550 108.1783 -27.3267 41.2801 5.6468 16.2138 7.4323 -16.3125 49.6773 -3.8762 -5.5573 19.8310 -30.4662 -25.7209 -0.4509 22.6856 -1.2357 -30.1751 4.2919 -10.4559 1.6028 -0.8813 -1.8375 -22.9146 21.7478 -18.6036 -0.3868 10.1955 1.7448 29.2578 -12.8209 -25.4315 -1.5152 -4.3722 1.2658
5.5023 88.9868 7.0516 4.5922 -0.7752 48.5754 3.3010 1.2347 4.0425 0.8689 -4.5658 9.6533 0.3247 8.7169 9.8952 -4.0718 14.8181 3.4728 -3.3367 -3.8807 -9.5953 -2.5472 -7.1635 -13.8578 0.0162 0.0252 -0.1191 0.7574 -10.5281 -3.9825 -0.7535 -10.5607 3.7878 -5.5190 8.5909 6.5436 -43.5327 -36.3681 57.8152 2.4040 -2.7046 -99.6159 107.2205 -38.4909 -57.9261 -15.6272 10.6777 14.1059 -61.2706 1.5479 2.8258 -27.4902 9.2395 29.5837 47.0974 -34.9910 29.1535 -0.2248 0.7836 107.1409 -27.5290 42.3616 6.1414 15.9097 7.5805 -16.5739 50.0876 -3.8782 -5.7189 19.5180 -30.6585 -25.0335 -0.4092 23.2862 -1.1328 -29.7181 3.9770 -10.2715 1.6029 -0.9541 -1.8511 -23.2766 21.7779 -18.3355 -0.4220 9.7475 1.8644 29.0600 -12.4511 -25.0437 -1.5024 -4.6950 1.2815
5.7735 89.0819 7.0040 4.4908 -0.5316 47.8786 3.3453 1.3485 3.9789 0.8773 -4.5154 9.4577 0.3849 8.8501 9.6240 -4.3580 13.9825 3.6365 -3.1647 -3.8845 -9.1089 -2.4844 -8.0908 -13.2711 0.0168 0.0350 -0.1200 0.7573 -10.5377 -3.9895 -0.7513 -10.5770 3.7930 -5.2871 8.2583 5.8982 -45.5611 -38.5353 59.4350 2.4549 -2.6934 -101.2418 103.0591 -36.4091 -54.0837 -15.6472 10.7540 14.3482 -61.1996 1.5059 2.9008 -26.9680 9.1454 29.3156 45.3481 -34.5486 30.6439 -0.5769 0.9749 105.4223 -28.1129 43.0195 6.6599 15.8270 7.6394 -16.7495 50.2052 -3.8582 -5.8064 19.5232 -30.9931 -24.3207 -0.4124 23.8977 -1.1406 -29.3336 3.7553 -10.1495 1.6061 -1.0404 -1.8872 -23.4198 21.6398 -18.1346 -0.4359 9.2750 1.8779 28.9165 -11.6578 -24.6851 -1.4911 -4.8737 1.2521
5.9592 89.1880 6.9557 4.2602 -0.2232 47.0980 3.3639 1.4159 3.8371 0.9020 -4.4768 9.1726 0.5031 9.0051 9.2923 -4.5616 13.2946 3.8034 -2.9508 -3.9197 -8.4388 -2.3948 -9.0404 -12.4294 0.0105 0.0426 -0.0928 0.7420 -10.5292 -3.9613 -0.7474 -10.5742 3.8164 -4.8045 7.9931 4.8882 -48.3080 -39.5956 60.7657 2.5604 -2.6901 -103.9037 97.6642 -34.1831 -49.3531 -15.6273 10.7595 14.4792 -61.0287 1.4745 2.8385 -25.9072 8.9656 29.0934 43.3591 -33.8715 32.0185 -0.9487 1.0645 102.8652 -29.1135 42.9621 7.3588 15.7108 7.6898 -16.8265 50.1712 -3.7473 -5.7818 19.7267 -31.3262 -23.5638 -0.4157 24.4261 -1.1457 -28.9670 3.6494 -9.9871 1.6148 -0.9753 -1.8738 -23.4651 21.3044 -17.9785 -0.4335 8.8810 1.9133 28.8233 -10.9599 -24.1003 -1.4841 -5.0742 1.2212
6.0857 89.2882 6.8607 3.9043 0.1135 46.1557 3.4446 1.4577 3.7590 0.9336 -4.4716 8.8184 0.7050 9.2291 8.9412 -4.6184 12.6612 3.9872 -2.7772 -3.9003 -7.4773 -2.3641 -9.9627 -11.5228 0.0100 0.0253 -0.0538 0.7227 -10.5294 -3.9296 -0.7276 -10.5880 3.8606 -4.2136 7.6581 3.5622 -50.8776 -39.3235 60.6956 2.2096 -2.4375 -107.2575 91.5340 -32.4223 -44.0591 -15.5316 10.7798 14.6155 -60.9634 1.4472 2.7359 -24.2426 8.7688 28.9174 40.8043 -32.9157 33.3959 -1.1033 1.3024 99.2133 -30.9874 42.2629 7.8191 15.9641 7.6505 -16.6929 49.8951 -3.6142 -5.6276 20.1712 -31.7369 -22.9534 -0.4508 25.0908 -1.2414 -28.6730 3.5573 -9.7269 1.6189 -0.9516 -1.8442 -23.4234 20.6880 -17.8857 -0.4057 8.6931 1.8578 28.8886 -10.0503 -23.5374 -1.4945 -4.9434 1.1773
6.2183 89.3776 6.7093 3.5540 0.2809 45.0598 3.4429 1.5694 3.4781 0.9594 -4.4055 8.4364 0.9831 9.4412 8.4772 -4.7412 12.1969 4.1514 -2.3621 -3.9080 -6.4651 -2.1986 -10.7000 -9.9164 -0.0087 0.0536 -0.0399 0.6782 -10.4832 -3.9059 -0.7185 -10.5268 3.8753 -3.5686 7.8016 2.1342 -52.4701 -37.6505 58.0853 1.5167 -2.2927 -110.7213 83.6362 -30.9494 -36.7979 -15.2933 10.7358 14.6141 -61.2603 1.4712 2.4874 -22.0553 8.6969 28.9507 37.2004 -31.1744 35.4114 -1.5319 1.3345 94.1575 -33.3693 41.4153 8.3112 15.9257 7.7592 -16.7216 50.2060 -3.4953 -5.5955 20.4894 -31.8753 -22.0088 -0.4185 25.5738 -1.2300 -28.3300 3.6941 -9.4972 1.6302 -0.9075 -1.7802 -23.5664 19.9049 -17.8411 -0.3925 8.8624 1.9022 28.9379 -9.8168 -22.8023 -1.4798 -5.1166 1.1787
6.3246 89.4743 6.4966 3.2221 0.2874 43.8850 3.4867 1.6845 3.1979 0.9941 -4.4109 7.9988 1.2552 9.8035 8.0689 -4.6793 11.7518 4.2191 -1.9943 -3.8187 -5.3102 -1.9934 -11.3168 -8.3099 -0.0193 0.0820 -0.0234 0.6427 -10.4850 -3.8902 -0.7020 -10.5031 3.8924 -3.1023 7.8773 0.6685 -51.4654 -35.4292 52.5265 -0.1867 -1.6542 -112.3889 73.4135 -30.5188 -27.6640 -15.1215 10.8867 15.1047 -61.6812 1.4877 2.4794 -19.6311 8.7552 28.8604 32.6142 -28.4671 37.9184 -1.6993 1.4613 87.9296 -36.9408 40.2924 7.5131 16.0029 7.9169 -16.6731 50.2057 -3.4119 -5.4106 20.7355 -31.9751 -21.0216 -0.4374 26.2175 -1.3102 -27.9863 3.7189 -9.3560 1.6465 -1.0240 -1.8002 -23.8431 19.0478 -17.8517 -0.3503 9.3128 1.8516 29.0773 -9.2747 -22.1704 -1.4828 -5.0396 1.1839
6.4506 89.5016 6.3039 3.0504 0.2259 42.3751 3.4327 1.7461 3.0420 1.0418 -4.4413 7.4567 1.4567 10.2101 7.7307 -4.4786 11.3831 4.2071 -1.5299 -3.6538 -3.8664 -1.8668 -11.5197 -6.9481 -0.0194 0.0789 -0.0013 0.6366 -10.5492 -3.8832 -0.6948 -10.5488 3.9248 -2.8471 7.8403 -0.5754 -47.4035 -32.9799 44.8518 -1.8268 -0.5643 -111.1256 58.2975 -29.4533 -16.0959 -15.2877 11.1244 15.7658 -61.0662 1.5171 2.6863 -17.0273 9.0006 28.5945 27.0824 -24.2014 40.7057 -1.2266 1.4951 80.5250 -41.7991 39.5941 5.1649 16.1407 8.0085 -16.5668 49.6494 -3.3320 -5.1177 20.7949 -32.0776 -19.8668 -0.4688 27.0680 -1.3750 -27.5419 3.3046 -9.2344 1.6418 -1.1771 -1.8716 -24.3173 18.0960 -17.6802 -0.3227 9.8182 1.8057 29.1627 -8.6680 -21.7258 -1.5072 -4.5816 1.1792
6.6481 89.5540 6.1144 3.0094 -0.0096 40.6348 3.2697 1.8140 2.7832 1.0530 -4.3757 6.8998 1.5906 10.5278 7.3467 -4.4011 11.3972 3.9882 -0.8848 -3.6628 -2.4775 -1.6245 -11.4259 -5.1930 -0.0205 0.1148 -0.0263 0.6335 -10.5674 -3.8984 -0.6930 -10.5514 3.8933 -3.1305 7.9710 -1.3184 -40.9036 -30.8638 36.9972 -2.1230 0.4744 -106.9352 42.0532 -23.3664 -7.7822 -15.1541 10.8029 15.4609 -60.2421 1.6108 2.4387 -14.4433 9.6719 28.2530 21.0451 -17.3287 43.5340 -0.8945 1.4689 71.8076 -47.5391 39.6172 0.9379 16.1781 7.9820 -16.3855 49.4271 -3.1934 -5.0722 20.6176 -31.8253 -18.3836 -0.3795 27.8396 -1.2378 -27.0199 2.8542 -9.1039 1.6348 -1.3704 -2.0050 -25.0002 17.2330 -17.2770 -0.4071 10.5203 1.8362 29.2044 -8.5779 -20.7828 -1.4957 -4.6106 1.1896
6.8933 89.6040 6.0002 2.9474 -0.3738 38.8328 3.1554 1.8438 2.6361 1.0474 -4.3840 6.5427 1.5529 10.9597 7.0107 -4.2543 11.6488 3.5761 -0.4317 -3.7239 -1.3307 -1.2395 -11.4316 -3.5584 -0.0196 0.1254 -0.0607 0.6229 -10.5621 -3.9183 -0.6809 -10.5495 3.8425 -3.1273 7.9420 -1.8945 -36.0172 -30.1158 32.7223 -1.8612 1.4609 -101.0123 35.7601 -18.7746 -7.8255 -14.7314 10.5250 15.2217 -59.5875 1.4707 2.1568 -12.6043 10.5191 27.8432 17.4267 -9.1060 44.1818 -0.6558 1.2396 62.1633 -53.9492 37.8815 -4.9410 16.7302 7.3553 -15.7327 49.6211 -3.1105 -4.9386 20.4605 -31.4093 -16.8133 -0.3616 28.6415 -1.1821 -26.6806 2.3425 -9.0119 1.6347 -1.4252 -2.1124 -25.5912 16.5779 -16.5430 -0.4598 11.4231 1.7534 29.0559 -7.8881 -19.6440 -1.4927 -5.0814 1.2198
7.1008 89.6959 5.9544 2.9461 -0.7165 37.1259 2.9609 1.9145 2.6129 0.9942 -4.3265 6.3274 1.2787 11.2320 6.7405 -4.2391 12.0076 3.3251 -0.1063 -3.8430 -0.4944 -0.9682 -11.4480 -2.1904 -0.0147 0.1088 -0.1342 0.6109 -10.5480 -3.9841 -0.6594 -10.5552 3.7605 -2.7965 7.8938 -2.2412 -34.4119 -32.1710 33.1371 -1.7224 1.9355 -93.6342 37.1837 -15.8594 -11.0372 -14.9389 10.5378 15.1602 -59.8500 1.4527 2.0365 -11.4462 11.1702 27.5853 17.1401 -1.5717 42.2940 -0.1680 0.7370 51.9982 -57.4410 31.7039 -9.2713 16.7645 6.7334 -15.1592 50.6317 -2.9344 -4.8053 20.3442 -30.8479 -15.4248 -0.4214 29.1083 -1.2129 -26.5615 1.9070 -8.8090 1.6414 -1.1473 -2.1277 -26.1402 15.9963 -15.6933 -0.4716 12.3045 1.6994 28.8965 -7.4241 -18.6032 -1.4827 -5.3704 1.2215
7.2042 89.7023 5.9306 2.9623 -0.7835 35.8081 2.5905 2.0705 2.6248 0.8158 -4.2013 6.2869 0.8803 11.2618 6.4813 -4.4431 12.1317 3.3392 0.0729 -3.9299 0.0837 -0.7946 -11.5083 -1.1700 -0.0025 0.0917 -0.2069 0.6146 -10.5308 -4.0591 -0.6388 -10.5479 3.6846 -2.1739 7.7654 -2.4936 -35.9330 -36.8007 37.6945 -1.9550 2.1366 -84.6821 44.1854 -12.7053 -13.7411 -15.6453 10.5184 15.3688 -60.3514 1.5837 2.2454 -10.5688 11.4745 27.2234 19.1727 5.8167 38.5775 0.0507 0.2356 42.6778 -55.6463 22.0703 -12.1401 16.5902 6.5530 -15.1844 52.3940 -2.9492 -4.9165 20.3573 -30.5752 -14.3294 -0.5343 29.2253 -1.3459 -26.5575 1.7138 -8.8418 1.6414 -0.8643 -2.0399 -26.4381 15.3684 -15.0129 -0.4964 13.0404 1.6384 28.7293 -7.3737 -18.1688 -1.4562 -5.1853 1.1849
7.1357 89.6720 5.8853 2.9088 -0.4594 34.9912 2.0907 2.3402 2.5834 0.5685 -4.0093 6.3479 0.3637 11.1185 6.2145 -5.0379 11.8551 3.6907 0.0935 -3.9359 0.6184 -0.5744 -11.9176 -0.4851 0.0061 0.0825 -0.2193 0.6165 -10.5308 -4.0802 -0.6231 -10.5492 3.6784 -1.6220 7.5812 -2.5754 -38.9711 -41.9793 44.6349 -2.1704 2.3141 -76.0577 53.5991 -13.6006 -14.8809 -16.2743 10.1218 15.5956 -60.9352 1.7890 2.5198 -9.7453 11.9347 26.5393 22.1416 11.6238 32.8746 0.6977 0.1688 35.2822 -50.4926 10.7572 -14.6944 17.4431 6.1793 -16.0239 53.8445 -3.3610 -5.3291 20.5917 -30.7720 -13.5112 -0.6464 29.0516 -1.5116 -26.6389 1.6810 -9.0463 1.6371 -0.6597 -1.9382 -26.4126 14.4740 -14.6614 -0.5162 13.5897 1.6441 28.7076 -7.9425 -18.0980 -1.4451 -4.7477 1.1715
